<?xml version="1.0" standalone="no"?>
<!DOCTYPE svg PUBLIC "-//W3C//DTD SVG 20010904//EN"
 "http://www.w3.org/TR/2001/REC-SVG-20010904/DTD/svg10.dtd">
<svg version="1.0" xmlns="http://www.w3.org/2000/svg"
 width="16.000000pt" height="16.000000pt" viewBox="0 0 16.000000 16.000000"
 preserveAspectRatio="xMidYMid meet">
<metadata>
Created by potrace 1.11, written by Peter Selinger 2001-2013
</metadata>
<g transform="translate(0.000000,16.000000) scale(0.002286,-0.002286)"
fill="#000000" stroke="none">
<path d="M1157 6558 c-58 -92 -453 -723 -477 -763 -19 -31 -258 -416 -319
-512 -25 -40 -64 -100 -85 -134 -237 -374 -276 -442 -263 -458 8 -9 97 -119
198 -246 101 -126 186 -232 189 -235 3 -3 32 -39 65 -80 32 -41 61 -77 65 -80
3 -3 50 -61 105 -130 55 -69 105 -132 112 -140 7 -8 34 -42 60 -75 110 -138
508 -631 518 -641 5 -6 21 -26 35 -44 42 -56 81 -105 88 -110 4 -3 29 -34 57
-70 52 -68 68 -87 99 -123 10 -12 30 -38 45 -57 14 -19 28 -37 31 -40 5 -4
197 -242 565 -700 55 -69 102 -127 105 -130 8 -8 281 -347 330 -410 37 -47
356 -444 403 -500 7 -8 48 -60 92 -115 44 -55 82 -102 85 -105 4 -3 57 -69
120 -147 62 -79 116 -143 120 -143 4 0 41 42 81 93 41 50 152 189 248 307 95
118 186 231 201 250 15 19 88 109 161 200 73 91 216 269 318 395 101 127 196
244 210 260 14 17 40 48 56 69 33 42 198 247 250 311 18 22 53 65 77 95 123
154 293 366 298 370 3 3 39 48 80 100 41 52 77 97 80 100 3 3 50 61 105 130
55 69 105 130 110 136 6 6 24 29 40 50 17 21 50 63 75 94 25 30 158 195 295
365 137 171 285 355 330 410 133 163 315 390 423 525 68 85 68 79 -3 179 -17
25 -34 51 -36 57 -6 14 -165 270 -200 321 -16 23 -29 44 -29 47 0 2 -35 60
-79 128 -125 197 -301 478 -301 483 0 2 -27 44 -60 94 -33 50 -60 93 -60 96 0
3 -16 28 -35 55 -19 27 -35 52 -35 55 0 3 -28 49 -62 102 -34 54 -77 123 -96
153 -19 30 -43 67 -53 82 -11 15 -19 30 -19 33 0 3 -18 33 -40 66 l-41 59
-2289 0 -2290 0 -53 -82z"/>
</g>
</svg>
