<?xml version="1.0" encoding="utf-8"?>
<!-- Generator: Adobe Illustrator 21.0.0, SVG Export Plug-In . SVG Version: 6.00 Build 0)  -->
<svg version="1.1" id="Capa_1" xmlns="http://www.w3.org/2000/svg" xmlns:xlink="http://www.w3.org/1999/xlink" x="0px" y="0px"
	 viewBox="0 0 595.3 594.7" style="enable-background:new 0 0 595.3 594.7;" xml:space="preserve">
<g>
	<path d="M590.2,5c-5-4.9-12.6-6.3-18.9-3.6l-561,245.8c-6,2.7-9.9,8.4-10.3,14.8c-0.4,6.5,3,12.6,8.6,15.7l195.6,110.9l116.1,197.6
		c3,5.2,8.8,8.5,14.7,8.5c0.4,0,0.6,0,1,0c6.5-0.4,12.1-4.3,14.7-10.3l243-560.7C596.7,17.4,595.3,9.9,590.2,5z M501,69.6
		L213.9,354.8L55.4,264.9L501,69.6z M332.8,539.9l-94.6-161.1L527,92L332.8,539.9z"/>
</g>
</svg>
