<?xml version="1.0" encoding="utf-8"?>
<!-- Generator: Adobe Illustrator 21.0.0, SVG Export Plug-In . SVG Version: 6.00 Build 0)  -->
<svg version="1.1" id="Слой_1" xmlns="http://www.w3.org/2000/svg" xmlns:xlink="http://www.w3.org/1999/xlink" x="0px" y="0px"
	 viewBox="0 0 96 131.3" style="enable-background:new 0 0 96 131.3;" xml:space="preserve">
<style type="text/css">
	.st0{fill-rule:evenodd;clip-rule:evenodd;}
	.st1{fill-rule:evenodd;clip-rule:evenodd;fill:none;}
	.st2{font-family:'HelveticaNeueCyr-Roman';}
	.st3{font-size:18px;}
</style>
<path class="st0" d="M66.4,54.3c-1.5-2.3-2.9-4.5-4.3-6.6c2-3.6,2.1-7.7,1.6-11.8c-0.5-4.1-1.6-8.1-3.6-11.8c-0.7-1.3-1-2.8-1.9-3.9
	c-1.8-2.2-3.8-4.3-6-6c-2.5-1.9-5.1-3.7-8-5.1c-2.3-1.1-5-1.6-7.6-2.3c-0.2,0-0.3,0-0.5,0C30.5,5.6,25.6,7.3,21,10.6
	c-5.2,3.7-7.5,9-9.1,14.9c-1.1,4.1-0.7,8.3,0.2,12.2c1,4.5,3,8.7,5.9,12.4c3.9,4.9,9.1,7.7,14.7,10c2.4,1,4.9,0.9,7.4,1.3
	c1.2,0.2,1.6-0.4,1.3-1.5c-0.2-0.9-0.3-1.8-0.5-2.7c1.4,1.3,2.6,2.6,4,3.7c3.9,3.1,8.5,3.8,13.3,4.4c8.2,1.1,14.7,5.1,19.1,12.2
	c0,0,0,0.1-0.1,0.5c-0.4-0.4-0.7-0.6-1-0.9c-5.9-6.2-13-9.4-21.6-9.5c-4-0.1-7.8,0.9-11.6,1.6c-4.5,0.9-8.9,0.3-13.3-0.6
	c-4.9-0.9-9.5-2.7-13.7-5.4c-3.5-2.2-6.5-5-8.7-8.5c-1.6-2.6-2.8-5.4-3.8-8.3c-0.8-2.6-1.4-5.4-1.5-8.1c-0.2-7.9,1.7-15.1,6.2-21.7
	C13.6,9.1,20.7,4.1,29.6,1.5c1.9-0.6,3.9-0.6,5.9-0.8C36.6,0.4,37.8,0,38.9,0c7.9,0.3,15.3,2,21.6,7.1c5.5,4.4,9.6,9.9,11.6,16.8
	c2.9,10.2,1,19.7-4.2,28.7C67.5,53.3,66.8,53.9,66.4,54.3z"/>
<path class="st0" d="M52.6,99.7c-0.3,0.9-0.7,1.8-1,2.7c-1.1,3.6-2.3,7.3-3.3,10.9c-0.3,0.9-0.7,1.4-1.6,1.2
	c-0.6-0.2-1.3-0.6-1.5-1.1c-2.2-7.5-4.4-15-6.6-22.9c1.4,0,2.7-0.1,3.9,0.1c0.3,0,0.7,0.8,0.8,1.2c1,4.1,2,8.2,3.1,12.4
	c0.2,0.8,0.5,1.5,0.7,2.2c0.2,0,0.3,0,0.5,0c0.7-2.2,1.5-4.5,2.2-6.7c0.8-2.6,1.5-5.2,2.4-7.8c0.2-0.5,0.8-0.9,1.2-1.4
	c0.4,0.5,1,0.9,1.2,1.5c1.4,4.3,2.8,8.7,4.1,13.1c0.1,0.4,0.3,0.9,0.9,1.4c0.2-0.4,0.4-0.9,0.6-1.3c1-4.1,2-8.1,3-12.2
	c0.7-2.8,0.7-2.8,3.9-2.2c-0.6,2.4-1.2,4.8-1.8,7.2c-1.4,5.1-2.9,10.1-4.3,15.2c-0.2,0.8-0.4,1.3-1.4,1.4c-1,0-1.4-0.4-1.7-1.3
	c-1.3-4-2.6-8-4-11.9c-0.2-0.6-0.4-1.1-0.6-1.6C52.9,99.7,52.7,99.7,52.6,99.7z"/>
<path class="st0" d="M21.9,102.4c-0.5,5.2-2.1,9.4-6.9,11.8c-1.2,0.6-0.9,1.3-0.4,2.1c1.3,2.1,3.3,3.3,5.5,4.1
	c0.2,0.1,0.4,0.1,0.6,0.2c0.7,0.4,1.3,0.8,1.9,1.2c-0.8,0.2-1.6,0.6-2.3,0.5c-4.3-0.7-8-2.4-10.4-6.3c-0.4-0.5-0.9-1.2-1.5-1.3
	c-4.5-1.2-7-4.2-8-8.6c-0.9-4.3-0.6-8.5,2.1-12.2c4.6-6.3,14.2-5.4,17.5,1.7C21.1,97.8,21.3,100.2,21.9,102.4z M17.3,102.6
	c-0.1,0-0.1,0-0.2,0c-0.1-1,0-2.1-0.2-3.1c-0.1-0.9-0.4-1.7-0.6-2.5c-0.8-2.5-2.9-4.4-5.3-4.5c-2.1-0.1-4.4,1.3-5.4,3.8
	c-1.7,4.3-1.7,8.7,0.2,12.9c1,2.2,2.7,3.7,5.4,3.4c2.7-0.3,4.3-1.9,5-4.3C16.8,106.4,17,104.5,17.3,102.6z"/>
<path class="st0" d="M73.3,90.7c0.4-0.1,0.5-0.2,0.6-0.2c3.8-0.3,3.8-0.3,3.8,3.5c0,6.3,0,12.5,0,18.8c0,1.3-0.4,1.8-1.7,1.7
	c-0.3,0-0.7,0-1,0c-1.3,0.2-1.8-0.3-1.8-1.7c0.1-5.7,0-11.5,0-17.2C73.3,94,73.3,92.4,73.3,90.7z"/>
<path class="st0" d="M32.5,90.5c0,6.4,0,12.6,0,18.7c0,1,0,2.1,0,3.1c0,2.2,0,2.1-2.3,2.2c-1.7,0.1-2-0.6-2-2.1
	c0.1-6.5,0-13.1,0-19.6c0-2.4,0-2.4,2.4-2.4C31.3,90.5,31.8,90.5,32.5,90.5z"/>
<path class="st0" d="M57.1,60.8c-1.5-0.2-2.6-1.2-2.4-2.3c0.1-0.6,0.9-1,1.3-1.5c0.7,0.7,1.5,1.3,1.9,2.1
	C58.2,59.4,57.5,60.2,57.1,60.8z"/>
<rect x="22.7" y="118.4" class="st1" width="73.4" height="15.8"/>
<text transform="matrix(1 0 0 1 22.6793 131.1668)" class="st2 st3">кошелек</text>
</svg>
