<?xml version="1.0" encoding="utf-8"?>
<!-- Generator: Adobe Illustrator 21.0.0, SVG Export Plug-In . SVG Version: 6.00 Build 0)  -->
<svg version="1.1" id="Capa_1" xmlns="http://www.w3.org/2000/svg" xmlns:xlink="http://www.w3.org/1999/xlink" x="0px" y="0px"
	 viewBox="0 0 595.3 841.9" style="enable-background:new 0 0 595.3 841.9;" xml:space="preserve">
<g>
	<g>
		<path d="M579.9,277.3L463.1,129.2c-2.9-3.7-7.3-5.9-12-5.9H144.3c-4.7,0-9,2.2-12,5.9L15.5,277.3c-2.2,2.7-3.3,6-3.3,9.4v416.5
			c0,8.4,6.9,15.3,15.3,15.3h540.4c8.4,0,15.3-6.9,15.3-15.3V286.8C583.1,283.3,582,280,579.9,277.3z M538.4,274H313V153.9h130.7
			L538.4,274z M151.7,153.9h130.7V274H57L151.7,153.9z M42.7,688V304.6h509.8V688H42.7z"/>
		<path d="M461.6,412.8H148.9c-8.4,0-15.3,6.9-15.3,15.3c0,8.4,6.9,15.3,15.3,15.3h312.7c8.4,0,15.3-6.9,15.3-15.3
			C476.8,419.7,470,412.8,461.6,412.8z"/>
		<path d="M402.2,484.5H208.3c-8.4,0-15.3,6.9-15.3,15.3c0,8.4,6.9,15.3,15.3,15.3h193.8c8.4,0,15.3-6.9,15.3-15.3
			C417.3,491.4,410.6,484.5,402.2,484.5z"/>
		<path d="M402.2,556.1H208.3c-8.4,0-15.3,6.9-15.3,15.3c0,8.4,6.9,15.3,15.3,15.3h193.8c8.4,0,15.3-6.9,15.3-15.3
			C417.3,563,410.6,556.1,402.2,556.1z"/>
	</g>
</g>
</svg>
