<?xml version="1.0" encoding="utf-8"?>
<!-- Generator: Adobe Illustrator 21.0.0, SVG Export Plug-In . SVG Version: 6.00 Build 0)  -->
<svg version="1.1" id="Layer_1" xmlns="http://www.w3.org/2000/svg" xmlns:xlink="http://www.w3.org/1999/xlink" x="0px" y="0px"
	 viewBox="0 0 482 597.5" style="enable-background:new 0 0 482 597.5;" xml:space="preserve">
<g>
	<g>
		<path d="M457.8,62.7L264,5.6c-15-4.4-31-4.4-46,0L24.3,62.7C10,66.9,0,80.3,0,95.2v160.5C0,330,22.1,401.5,63.9,462.5
			c40.8,59.6,97.7,105.4,164.3,132.5c4.1,1.7,8.5,2.5,12.8,2.5s8.7-0.8,12.8-2.5c66.7-27.1,123.5-73,164.3-132.5
			c41.8-61,63.9-132.5,63.9-206.8V95.2C482.1,80.3,472.1,66.9,457.8,62.7z M455,255.6c0,68.8-20.5,135-59.2,191.5
			c-37.8,55.2-90.4,97.6-152.2,122.8c-1.7,0.7-3.5,0.7-5.2,0C176.7,544.8,124,502.4,86.2,447.1C47.5,390.6,27,324.4,27,255.6V95.2
			c0-3,2-5.7,4.9-6.5l193.8-57.1c5-1.5,10.2-2.2,15.3-2.2c5.2,0,10.3,0.7,15.3,2.2l193.8,57.1c2.9,0.8,4.9,3.5,4.9,6.5V255.6
			L455,255.6z"/>
	</g>
</g>
<g>
	<g>
		<path d="M391.2,122.6L246.8,80c-3.8-1.1-7.7-1.1-11.5,0L90.9,122.6c-8.6,2.5-14.6,10.5-14.6,19.5v113.5
			c0,60,18.1,117.5,52.5,166.4c26.6,37.9,62.2,69.2,102.8,90.5c2.9,1.5,6.2,2.3,9.4,2.3c3.2,0,6.5-0.8,9.4-2.3
			c40.7-21.3,76.2-52.6,102.8-90.5c34.3-48.9,52.5-106.4,52.5-166.4V142.1C405.8,133.2,399.8,125.1,391.2,122.6z M378.7,255.6
			c0,54.4-16.4,106.5-47.5,150.8c-23.5,33.4-54.5,61.1-90.1,80.4c-35.5-19.3-66.6-47-90.1-80.4c-31.1-44.3-47.5-96.4-47.5-150.8
			V147.2l137.6-40.6l137.6,40.6V255.6z"/>
	</g>
</g>
</svg>
