<?xml version="1.0" encoding="utf-8"?>
<!-- Generator: Adobe Illustrator 21.0.0, SVG Export Plug-In . SVG Version: 6.00 Build 0)  -->
<svg version="1.1" id="Layer_1" xmlns="http://www.w3.org/2000/svg" xmlns:xlink="http://www.w3.org/1999/xlink" x="0px" y="0px"
	 viewBox="0 0 595.3 361.4" style="enable-background:new 0 0 595.3 361.4;" xml:space="preserve">
<g>
	<g>
		<path d="M594.9,30.4c0-16.8-13.7-30.4-30.5-30.4l0,0L30.5,0.7c-8.1,0-15.8,3.2-21.5,9c-5.9,5.7-9,13.4-9,21.6l0.4,300
			c0,8.1,3.2,15.8,9,21.5s13.4,8.9,21.5,8.9l0,0l533.9-0.7c16.8,0,30.5-13.7,30.5-30.5L594.9,30.4z M530.9,30.5L297.7,192.6L64,31.2
			L530.9,30.5z M396.3,223.2l138.3,107.3l-474.3,0.7l139.2-107.9c6.7-5.2,7.9-14.7,2.7-21.4c-5.2-6.7-14.7-7.9-21.4-2.7L30.9,315.4
			L30.5,45.1L289,223.7c2.6,1.8,5.6,2.7,8.7,2.7c3,0,6.1-0.9,8.7-2.7l258-179.4l0.4,271L415,199.2c-6.6-5.2-16.2-3.9-21.4,2.7
			C388.4,208.5,389.6,218.1,396.3,223.2z"/>
	</g>
</g>
</svg>
