<?xml version="1.0" encoding="utf-8"?>
<!-- Generator: Adobe Illustrator 21.0.0, SVG Export Plug-In . SVG Version: 6.00 Build 0)  -->
<svg version="1.1" id="Capa_1" xmlns="http://www.w3.org/2000/svg" xmlns:xlink="http://www.w3.org/1999/xlink" x="0px" y="0px"
	 viewBox="0 0 595.3 841.9" style="enable-background:new 0 0 595.3 841.9;" xml:space="preserve">
<g>
	<path d="M562,387.7h-14.2v-85.1c0-34.8-28.3-63-63-63h-13.1l0.1-31.6c0-23.4-19-42.5-42.5-42.5H51.6c-28.2,0-51.3,22.7-51.6,50.9
		c0,0.2,0,0.5,0,0.7v416.8c0,23.4,19,42.5,42.5,42.5h442.4c34.8,0,63-28.3,63-63v-85.2h14.2c18.3,0,33.2-14.9,33.2-33.2v-74.1
		C595.2,402.6,580.3,387.7,562,387.7z M51.6,194.8h377.7c7.2,0,13.2,5.9,13.2,13.1l-0.1,31.7H51.6c-12.3,0-22.3-10-22.3-22.3
		S39.3,194.8,51.6,194.8z M518.5,613.3c0,18.6-15.1,33.7-33.7,33.7H42.4c-7.2,0-13.2-5.9-13.2-13.2v-370c6.8,3.3,14.4,5.1,22.5,5.1
		h433.2c18.6,0,33.7,15.1,33.7,33.7v85.1h-100c-18.3,0-33.2,14.9-33.2,33.2V495c0,18.3,14.9,33.2,33.2,33.2h100V613.3z M565.9,495
		c0,2.2-1.7,3.9-3.9,3.9H418.6c-2.2,0-3.9-1.7-3.9-3.9v-74.1c0-2.1,1.7-3.9,3.9-3.9H562c2.1,0,3.9,1.7,3.9,3.9V495L565.9,495z"/>
</g>
</svg>
